<svg id="svg" version="1.1" xmlns="http://www.w3.org/2000/svg" xmlns:xlink="http://www.w3.org/1999/xlink" width="400" height="400" viewBox="0, 0, 400,400"><g id="svgg"><path id="path0" d="M55.600 200.400 L 55.600 300.800 82.277 300.800 C 107.513 300.800,114.192 300.584,121.000 299.550 C 144.262 296.014,161.181 282.007,168.047 260.600 C 170.639 252.518,170.600 253.448,170.600 200.200 C 170.600 148.821,170.653 150.617,168.927 143.200 C 164.144 122.649,148.427 107.305,126.800 102.074 C 118.577 100.086,116.867 100.000,85.393 100.000 L 55.600 100.000 55.600 200.400 M220.499 200.300 L 220.600 300.600 232.800 300.600 L 245.000 300.600 245.200 258.200 L 245.400 215.800 261.443 215.696 L 277.487 215.591 278.603 218.096 C 280.531 222.422,281.474 224.525,282.600 227.000 C 283.200 228.320,284.101 230.300,284.601 231.400 C 285.101 232.500,285.908 234.300,286.393 235.400 C 286.878 236.500,287.695 238.300,288.207 239.400 C 288.720 240.500,291.246 246.080,293.822 251.800 C 296.398 257.520,298.912 263.100,299.408 264.200 C 299.904 265.300,300.709 267.100,301.197 268.200 C 301.684 269.300,302.586 271.280,303.200 272.600 C 303.814 273.920,304.716 275.900,305.204 277.000 C 307.337 281.809,312.685 293.680,314.619 297.900 L 315.948 300.800 330.150 300.800 C 337.962 300.800,344.444 300.652,344.556 300.472 C 344.798 300.079,342.100 294.239,332.717 274.842 C 330.972 271.235,328.947 267.005,328.216 265.442 C 327.485 263.879,325.678 260.080,324.200 257.000 C 322.722 253.920,320.717 249.728,319.745 247.685 C 318.772 245.641,316.699 241.321,315.139 238.085 C 313.578 234.848,311.714 230.940,310.995 229.400 C 310.277 227.860,308.229 223.571,306.444 219.869 C 302.563 211.816,302.624 212.746,305.900 211.621 C 326.223 204.644,340.214 185.829,341.988 163.090 C 344.448 131.561,326.741 107.126,297.200 101.284 C 291.045 100.067,288.847 100.000,255.053 100.000 L 220.398 100.000 220.499 200.300 M116.306 122.599 C 132.306 125.429,142.252 135.204,145.408 151.200 C 146.285 155.645,146.279 244.193,145.401 249.000 C 143.106 261.571,136.879 269.866,125.803 275.108 C 119.724 277.985,111.544 278.891,93.200 278.718 L 80.600 278.600 80.499 200.300 L 80.398 122.000 96.699 122.007 C 109.198 122.013,113.771 122.151,116.306 122.599 M288.000 122.575 C 301.077 124.283,311.992 133.279,314.865 144.718 C 316.221 150.121,316.437 151.808,316.463 157.200 C 316.536 172.769,309.727 184.832,298.000 189.908 C 291.006 192.935,290.500 192.984,266.400 192.993 L 245.400 193.000 245.297 158.000 C 245.240 138.750,245.279 122.775,245.384 122.500 C 245.669 121.754,282.207 121.818,288.000 122.575 " stroke="none" fill="#faf9fb" fill-rule="evenodd"></path><path id="path1" d="M30.400 0.291 C 29.630 0.382,28.829 0.624,28.620 0.829 C 28.411 1.033,27.837 1.200,27.344 1.200 C 26.851 1.200,26.336 1.380,26.200 1.600 C 26.064 1.820,25.513 2.000,24.976 2.000 C 24.439 2.000,24.000 2.180,24.000 2.400 C 24.000 2.620,23.640 2.800,23.200 2.800 C 22.760 2.800,22.400 2.980,22.400 3.200 C 22.400 3.420,22.040 3.600,21.600 3.600 C 21.160 3.600,20.800 3.780,20.800 4.000 C 20.800 4.220,20.440 4.400,20.000 4.400 C 19.560 4.400,19.200 4.580,19.200 4.800 C 19.200 5.020,18.912 5.200,18.560 5.200 C 18.209 5.200,17.417 5.740,16.800 6.400 C 16.183 7.060,15.476 7.600,15.229 7.600 C 14.244 7.600,7.600 14.244,7.600 15.229 C 7.600 15.476,7.060 16.183,6.400 16.800 C 5.740 17.417,5.200 18.209,5.200 18.560 C 5.200 18.912,5.020 19.200,4.800 19.200 C 4.580 19.200,4.400 19.560,4.400 20.000 C 4.400 20.440,4.220 20.800,4.000 20.800 C 3.780 20.800,3.600 21.160,3.600 21.600 C 3.600 22.040,3.420 22.400,3.200 22.400 C 2.980 22.400,2.800 22.760,2.800 23.200 C 2.800 23.640,2.620 24.000,2.400 24.000 C 2.180 24.000,2.000 24.439,2.000 24.976 C 2.000 25.513,1.820 26.064,1.600 26.200 C 1.380 26.336,1.200 26.851,1.200 27.344 C 1.200 27.837,0.975 28.465,0.700 28.740 C -0.036 29.476,-0.036 370.524,0.700 371.260 C 0.975 371.535,1.200 372.163,1.200 372.656 C 1.200 373.149,1.380 373.664,1.600 373.800 C 1.820 373.936,2.000 374.487,2.000 375.024 C 2.000 375.561,2.180 376.000,2.400 376.000 C 2.620 376.000,2.800 376.360,2.800 376.800 C 2.800 377.240,2.980 377.600,3.200 377.600 C 3.420 377.600,3.600 377.960,3.600 378.400 C 3.600 378.840,3.780 379.200,4.000 379.200 C 4.220 379.200,4.400 379.560,4.400 380.000 C 4.400 380.440,4.580 380.800,4.800 380.800 C 5.020 380.800,5.200 381.088,5.200 381.440 C 5.200 381.791,5.740 382.583,6.400 383.200 C 7.060 383.817,7.600 384.524,7.600 384.771 C 7.600 385.756,14.244 392.400,15.229 392.400 C 15.476 392.400,16.183 392.940,16.800 393.600 C 17.417 394.260,18.209 394.800,18.560 394.800 C 18.912 394.800,19.200 394.980,19.200 395.200 C 19.200 395.420,19.560 395.600,20.000 395.600 C 20.440 395.600,20.800 395.780,20.800 396.000 C 20.800 396.220,21.160 396.400,21.600 396.400 C 22.040 396.400,22.400 396.580,22.400 396.800 C 22.400 397.020,22.760 397.200,23.200 397.200 C 23.640 397.200,24.000 397.380,24.000 397.600 C 24.000 397.820,24.439 398.000,24.976 398.000 C 25.513 398.000,26.064 398.180,26.200 398.400 C 26.336 398.620,26.851 398.800,27.344 398.800 C 27.837 398.800,28.465 399.025,28.740 399.300 C 29.476 400.036,370.524 400.036,371.260 399.300 C 371.535 399.025,372.163 398.800,372.656 398.800 C 373.149 398.800,373.664 398.620,373.800 398.400 C 373.936 398.180,374.487 398.000,375.024 398.000 C 375.561 398.000,376.000 397.820,376.000 397.600 C 376.000 397.380,376.360 397.200,376.800 397.200 C 377.240 397.200,377.600 397.020,377.600 396.800 C 377.600 396.580,377.960 396.400,378.400 396.400 C 378.840 396.400,379.200 396.220,379.200 396.000 C 379.200 395.780,379.560 395.600,380.000 395.600 C 380.440 395.600,380.800 395.420,380.800 395.200 C 380.800 394.980,381.088 394.800,381.440 394.800 C 381.791 394.800,382.583 394.260,383.200 393.600 C 383.817 392.940,384.524 392.400,384.771 392.400 C 385.192 392.400,387.036 390.887,388.962 388.962 C 390.887 387.036,392.400 385.192,392.400 384.771 C 392.400 384.524,392.940 383.817,393.600 383.200 C 394.260 382.583,394.800 381.791,394.800 381.440 C 394.800 381.088,394.980 380.800,395.200 380.800 C 395.420 380.800,395.600 380.440,395.600 380.000 C 395.600 379.560,395.780 379.200,396.000 379.200 C 396.220 379.200,396.400 378.840,396.400 378.400 C 396.400 377.960,396.580 377.600,396.800 377.600 C 397.020 377.600,397.200 377.240,397.200 376.800 C 397.200 376.360,397.380 376.000,397.600 376.000 C 397.820 376.000,398.000 375.561,398.000 375.024 C 398.000 374.487,398.180 373.936,398.400 373.800 C 398.620 373.664,398.800 373.149,398.800 372.656 C 398.800 372.163,399.025 371.535,399.300 371.260 C 400.036 370.524,400.036 29.476,399.300 28.740 C 399.025 28.465,398.800 27.837,398.800 27.344 C 398.800 26.851,398.620 26.336,398.400 26.200 C 398.180 26.064,398.000 25.513,398.000 24.976 C 398.000 24.439,397.820 24.000,397.600 24.000 C 397.380 24.000,397.200 23.640,397.200 23.200 C 397.200 22.760,397.020 22.400,396.800 22.400 C 396.580 22.400,396.400 22.040,396.400 21.600 C 396.400 21.160,396.220 20.800,396.000 20.800 C 395.780 20.800,395.600 20.440,395.600 20.000 C 395.600 19.560,395.420 19.200,395.200 19.200 C 394.980 19.200,394.800 18.912,394.800 18.560 C 394.800 18.209,394.260 17.417,393.600 16.800 C 392.940 16.183,392.400 15.476,392.400 15.229 C 392.400 14.244,385.756 7.600,384.771 7.600 C 384.524 7.600,383.817 7.060,383.200 6.400 C 382.583 5.740,381.791 5.200,381.440 5.200 C 381.088 5.200,380.800 5.020,380.800 4.800 C 380.800 4.580,380.440 4.400,380.000 4.400 C 379.560 4.400,379.200 4.220,379.200 4.000 C 379.200 3.780,378.840 3.600,378.400 3.600 C 377.960 3.600,377.600 3.420,377.600 3.200 C 377.600 2.980,377.240 2.800,376.800 2.800 C 376.360 2.800,376.000 2.620,376.000 2.400 C 376.000 2.180,375.561 2.000,375.024 2.000 C 374.487 2.000,373.936 1.820,373.800 1.600 C 373.664 1.380,373.149 1.200,372.656 1.200 C 372.163 1.200,371.535 0.975,371.260 0.700 C 370.782 0.222,34.383 -0.182,30.400 0.291 M118.093 100.426 C 145.255 104.401,163.463 119.723,168.927 143.200 C 170.653 150.617,170.600 148.821,170.600 200.200 C 170.600 253.448,170.639 252.518,168.047 260.600 C 161.181 282.007,144.262 296.014,121.000 299.550 C 114.192 300.584,107.513 300.800,82.277 300.800 L 55.600 300.800 55.600 200.400 L 55.600 100.000 85.393 100.000 C 104.359 100.000,116.242 100.155,118.093 100.426 M292.354 100.425 C 322.156 105.206,339.668 123.525,341.996 152.355 C 344.196 179.591,329.655 203.466,305.900 211.621 C 302.624 212.746,302.563 211.816,306.444 219.869 C 308.229 223.571,310.277 227.860,310.995 229.400 C 311.714 230.940,313.578 234.848,315.139 238.085 C 316.699 241.321,318.772 245.641,319.745 247.685 C 320.717 249.728,322.722 253.920,324.200 257.000 C 325.678 260.080,327.485 263.879,328.216 265.442 C 328.947 267.005,330.972 271.235,332.717 274.842 C 342.100 294.239,344.798 300.079,344.556 300.472 C 344.444 300.652,337.962 300.800,330.150 300.800 L 315.948 300.800 314.619 297.900 C 312.685 293.680,307.337 281.809,305.204 277.000 C 304.716 275.900,303.814 273.920,303.200 272.600 C 302.586 271.280,301.684 269.300,301.197 268.200 C 300.709 267.100,299.904 265.300,299.408 264.200 C 298.912 263.100,296.398 257.520,293.822 251.800 C 291.246 246.080,288.720 240.500,288.207 239.400 C 287.695 238.300,286.878 236.500,286.393 235.400 C 285.908 234.300,285.101 232.500,284.601 231.400 C 284.101 230.300,283.200 228.320,282.600 227.000 C 281.474 224.525,280.531 222.422,278.603 218.096 L 277.487 215.591 261.443 215.696 L 245.400 215.800 245.200 258.200 L 245.000 300.600 232.800 300.600 L 220.600 300.600 220.499 200.300 L 220.398 100.000 255.053 100.000 C 277.564 100.000,290.635 100.149,292.354 100.425 M80.499 200.300 L 80.600 278.600 93.200 278.718 C 111.544 278.891,119.724 277.985,125.803 275.108 C 136.879 269.866,143.106 261.571,145.401 249.000 C 146.279 244.193,146.285 155.645,145.408 151.200 C 142.685 137.396,135.074 128.375,122.629 124.197 C 116.753 122.224,114.277 122.015,96.699 122.007 L 80.398 122.000 80.499 200.300 M245.384 122.500 C 245.279 122.775,245.240 138.750,245.297 158.000 L 245.400 193.000 266.400 192.993 C 288.120 192.985,290.976 192.797,295.171 191.103 C 309.559 185.289,316.543 174.170,316.463 157.200 C 316.437 151.808,316.221 150.121,314.865 144.718 C 311.992 133.279,301.077 124.283,288.000 122.575 C 282.207 121.818,245.669 121.754,245.384 122.500 " stroke="none" fill="#5404ac" fill-rule="evenodd"></path></g></svg>